<svg xmlns="http://www.w3.org/2000/svg" enable-background="new 0 0 1920 1080" viewBox="0 0 1920 1080" id="volleyball"><circle cx="1002.4" cy="441.1" r="441.1" fill="#2a94f4" opacity=".1"></circle><path fill="#0e538c" d="M900 396c4-34.1-67.2-20.2-73.1 34.6s3.5 100.9-70.4 90.9c0 0 74.1 57.7 103.6.3 29.6-57.4 36.7-98 39.9-125.8z"></path><path fill="#0e538c" d="M959.2 503.1s-62.4 3.7-73.7-86.3c0 0 20.6-43.4 91.6-37.1s-17.9 123.4-17.9 123.4z"></path><circle cx="965" cy="440.8" r="62.3" fill="#0e538c"></circle><path fill="#ffbe55" d="m1156.7 731.4 10-2.6-14.3-10.1zM1002.4 721.2s17.2 9.7 40.9 6.5c23.7-3.3-3.8-50.2-40.9-6.5z"></path><path fill="#fcd2b1" d="M1027.1 740s-5.9-32.9-11.8-57.1c-5.9-24.2 130.2 13.5 130.2 13.5s17.3 20 16.4 46.3c-.8 26.4-134.8-2.7-134.8-2.7zM1151.9 615.5s67.2-3.8 78.9-11.7c23.2-15.6 15.4-160 7.9-178.8-7.5-18.9-51.2-32.7-51.7-47.8-.5-15.1-11.1-9-12.2 3.2-1.1 12.9-4.8 28.1 35 44 8.1 3.2 2.7 122.8-3.8 128.2-6.5 5.4-44.1 2.7-44.1 2.7s-28.9 55.4-10 60.2z"></path><path fill="#ffe3ca" d="M866.6 512.5s-98.4-54.4-108.4-52.4c-36.1 7.1-.7 63.7 97.2 103.8 0 0 52.9 2 11.2-51.4z"></path><path fill="#fcd2b1" d="M1064.6 846.6s-7.1 113.2-2.1 121.9c0 0-143.2-2.4-202.9 18.9 0 0-27-22.9-39.5-17.4s-26.6 39.3-47.8 56.4c-21.1 17.1-10.2 52.9 5 53.6s31.2-60.2 71.4-58.6c40.2 1.7 208.5 6.6 245.4-2.3 36.9-8.8 67.8-156.8 67.8-156.8s-54.4-38.1-97.3-15.7z"></path><path fill="#ffbe55" d="M867 990.4s-3.3 2.8-8.7.1c-5.4-2.7-37.7 21.8-26.1 35.7 0 0-19.9 12.8-25.9 24.1s-21.8 31.8-38.2 27.5c-16.4-4.3-12.1-47.7 0-54.9s34.7-29.9 39.9-41.5c5.1-11.6 23.8-16.6 30.6-15.1 10.8 2.4 28.4 24.1 28.4 24.1z"></path><path fill="#ffe3ca" d="M1005.7 838.6s-17.6 112.1-13.4 121.2c0 0-142.3-15.6-203.7 0 0 0-24.8-25.3-37.7-21-12.9 4.3-30.2 36.6-52.8 51.7-22.6 15.1-15.1 51.7 0 53.9 15.1 2.2 36.6-57.1 76.5-51.7 39.9 5.4 207 25.9 244.5 20.5 37.6-5.4 82-149.8 82-149.8s-50.6-43.1-95.4-24.8z"></path><path fill="#ffbe55" d="m1161.9 742.7 4.7 128.6s-46.1 6.7-65.5-2c-19.4-8.6 52.1-116.8 60.8-126.6zM1047.6 539.1s90.7 8.6 114.3 16.2c0 0 25.8 49.8-6.6 62.1l-80.8-6.1s-60.3-33.4-26.9-72.2z"></path><path fill="#fcd2b1" d="M947.3 492.8s34.6 26.9 36.8 46.3l-54.2 2.5 98 26.9 32.1-27.4-12.3-2s-29.1-57.1-47.4-62.5c-18.4-5.4-43.4 3.4-53 16.2z"></path><path fill="#ffe3ca" d="M934.5 476.6s-11.9 2.2-9.7 8.6 23.7 7.5 31.2 8.6c0 0 61.4 19.4 72.2-25.9 10.8-45.2-42-76.5-62.5-73.3s15.1 73.4-31.2 82z"></path><path fill="#ffbe55" d="M1055.6 540.6c2.7-1.8 62 18.1 71 48.8 5.4 18.3 2.9 18.7 15.8 49.9s25.3 66.9 24.2 89.5c0 0-94.3-47.5-164.3-7.6 0 0 10.1-88-147-157.3 0 0 22-10.2 11.3-51.4 0 0 79.9 16.1 103.4 27.2 28.5 13.5 63 15.9 85.6.9zM1026.8 737.6s87.8-22.9 135.1 5.1c0 0 10.9 81.5-57.9 134.7 0 0-78.1-10.2-107.2-4.8 0 0-7-73.9 13.4-98.6 20.5-24.8 16.6-36.4 16.6-36.4z"></path><path fill="#ffe3ca" d="M793.4 494s-68.9-132.1-89.1-136c-14.5-2.8 21.5 134.4 65.4 154.5 43.8 20.1 23.7-18.5 23.7-18.5z"></path><path fill="#ffe3ca" d="M697.8 370s-15-14-26-36.5 13.3-35.5 20.5-24.6c7.2 10.9 10.7 19.3 13.8 26.7 3.2 7.4 3-12.5 0-16.2-3.1-3.7.2-11.8 8.7 2.4s12.8 72.4-17 48.2z"></path><path fill="#ffbe55" d="M789.2 959.6s-3.3 2.8-8.7.1c-5.4-2.7-37.7 21.8-26.1 35.7 0 0-19.9 12.8-25.9 24.1-5.9 11.3-21.8 31.8-38.2 27.5s-12.1-47.7 0-54.9 34.7-29.9 39.9-41.5c5.1-11.6 23.8-16.6 30.6-15.1 10.8 2.5 28.4 24.1 28.4 24.1z"></path><circle cx="1132.2" cy="237.5" r="84.9" fill="#d3d3d3"></circle><circle cx="1139.3" cy="229.5" r="74.2" fill="#f7f7f7"></circle><path fill="#d3d3d3" d="m1080.3 276.6-.5-.5c-8.2-8.9-13.1-25.6-13.3-26.3l-.4-1.5 1.6-.3c63.9-10.7 109.8-79.6 110.3-80.3l.9-1.3 1.2 1c.1.1 6.5 5.3 11.9 9.9 5.6 4.8 9.6 11.1 9.8 11.4l.2.4v.5c-4.5 74-119.7 86.9-120.9 87h-.8zm-10.6-26c1.4 4.2 5.6 16.1 11.7 23.1 9.7-1.2 113-15.6 117.6-83.8-.9-1.4-4.5-6.5-9-10.4-4-3.4-8.6-7.2-10.7-8.9-6.7 9.6-50.2 69.1-109.6 80z"></path></svg>